<svg width="166" height="146" viewBox="0 0 166 146" fill="none" xmlns="http://www.w3.org/2000/svg">
<g filter="url(#filter0_f_12008_13647)">
<path d="M157.374 65.804C127.887 85.598 96.8704 102.762 66.4707 121.025" stroke="#D0FA0A" stroke-width="3" stroke-miterlimit="1.5" stroke-linecap="round" stroke-linejoin="round"/>
<path d="M41.4575 103.454C83.4839 83.4697 123.448 57.482 162.699 32.5894" stroke="#D0FA0A" stroke-width="3" stroke-miterlimit="1.5" stroke-linecap="round" stroke-linejoin="round"/>
<path d="M126.701 25.9721C116.794 31.3997 107.667 38.157 98.0153 43.9987C80.6919 54.4836 62.7041 63.6357 44.8397 73.1301" stroke="#D0FA0A" stroke-width="3" stroke-miterlimit="1.5" stroke-linecap="round" stroke-linejoin="round"/>
<path d="M141.459 17.1165C146.412 13.9424 151.305 10.6383 156.085 7.20587" stroke="#D0FA0A" stroke-width="3" stroke-miterlimit="1.5" stroke-linecap="round" stroke-linejoin="round"/>
<path d="M71.3716 30.9649C85.0252 22.5197 99.014 14.6599 112.708 6.30004" stroke="#D0FA0A" stroke-width="3" stroke-miterlimit="1.5" stroke-linecap="round" stroke-linejoin="round"/>
<path d="M129.638 -3.73419C133.502 -6.3085 137.395 -8.85792 141.209 -11.5066" stroke="#D0FA0A" stroke-width="3" stroke-miterlimit="1.5" stroke-linecap="round" stroke-linejoin="round"/>
<path d="M19.8704 32.8511C44.5665 20.5519 67.8588 5.72134 92.3869 -6.78981" stroke="#D0FA0A" stroke-width="3" stroke-miterlimit="1.5" stroke-linecap="round" stroke-linejoin="round"/>
<path d="M121.381 -53.2442C99.8968 -36.4925 75.2509 -21.4838 51.1909 -8.72121" stroke="#D0FA0A" stroke-width="3" stroke-miterlimit="1.5" stroke-linecap="round" stroke-linejoin="round"/>
</g>
<g filter="url(#filter1_f_12008_13647)">
<path d="M157.374 65.804C127.887 85.598 96.8704 102.762 66.4707 121.025" stroke="#D0FA0A" stroke-width="3" stroke-miterlimit="1.5" stroke-linecap="round" stroke-linejoin="round"/>
<path d="M41.4575 103.454C83.4839 83.4697 123.448 57.482 162.699 32.5894" stroke="#D0FA0A" stroke-width="3" stroke-miterlimit="1.5" stroke-linecap="round" stroke-linejoin="round"/>
<path d="M126.701 25.9721C116.794 31.3997 107.667 38.157 98.0153 43.9987C80.6919 54.4836 62.7041 63.6357 44.8397 73.1301" stroke="#D0FA0A" stroke-width="3" stroke-miterlimit="1.5" stroke-linecap="round" stroke-linejoin="round"/>
<path d="M141.459 17.1165C146.412 13.9424 151.305 10.6383 156.085 7.20587" stroke="#D0FA0A" stroke-width="3" stroke-miterlimit="1.5" stroke-linecap="round" stroke-linejoin="round"/>
<path d="M71.3716 30.9649C85.0252 22.5197 99.014 14.6599 112.708 6.30004" stroke="#D0FA0A" stroke-width="3" stroke-miterlimit="1.5" stroke-linecap="round" stroke-linejoin="round"/>
<path d="M129.638 -3.73419C133.502 -6.3085 137.395 -8.85792 141.209 -11.5066" stroke="#D0FA0A" stroke-width="3" stroke-miterlimit="1.5" stroke-linecap="round" stroke-linejoin="round"/>
<path d="M19.8704 32.8511C44.5665 20.5519 67.8588 5.72134 92.3869 -6.78981" stroke="#D0FA0A" stroke-width="3" stroke-miterlimit="1.5" stroke-linecap="round" stroke-linejoin="round"/>
<path d="M121.381 -53.2442C99.8968 -36.4925 75.2509 -21.4838 51.1909 -8.72121" stroke="#D0FA0A" stroke-width="3" stroke-miterlimit="1.5" stroke-linecap="round" stroke-linejoin="round"/>
</g>
<path d="M157.374 65.804C127.887 85.598 96.8704 102.762 66.4707 121.025" stroke="#D0FA0A" stroke-width="3" stroke-miterlimit="1.5" stroke-linecap="round" stroke-linejoin="round"/>
<path d="M41.4575 103.454C83.4839 83.4697 123.448 57.482 162.699 32.5894" stroke="#D0FA0A" stroke-width="3" stroke-miterlimit="1.5" stroke-linecap="round" stroke-linejoin="round"/>
<path d="M126.701 25.9721C116.794 31.3997 107.667 38.157 98.0153 43.9987C80.6919 54.4836 62.7041 63.6357 44.8397 73.1301" stroke="#D0FA0A" stroke-width="3" stroke-miterlimit="1.5" stroke-linecap="round" stroke-linejoin="round"/>
<path d="M141.459 17.1165C146.412 13.9424 151.305 10.6383 156.085 7.20587" stroke="#D0FA0A" stroke-width="3" stroke-miterlimit="1.5" stroke-linecap="round" stroke-linejoin="round"/>
<path d="M71.3716 30.9649C85.0252 22.5197 99.014 14.6599 112.708 6.30004" stroke="#D0FA0A" stroke-width="3" stroke-miterlimit="1.5" stroke-linecap="round" stroke-linejoin="round"/>
<path d="M129.638 -3.73419C133.502 -6.3085 137.395 -8.85792 141.209 -11.5066" stroke="#D0FA0A" stroke-width="3" stroke-miterlimit="1.5" stroke-linecap="round" stroke-linejoin="round"/>
<path d="M19.8704 32.8511C44.5665 20.5519 67.8588 5.72134 92.3869 -6.78981" stroke="#D0FA0A" stroke-width="3" stroke-miterlimit="1.5" stroke-linecap="round" stroke-linejoin="round"/>
<path d="M121.381 -53.2442C99.8968 -36.4925 75.2509 -21.4838 51.1909 -8.72121" stroke="#D0FA0A" stroke-width="3" stroke-miterlimit="1.5" stroke-linecap="round" stroke-linejoin="round"/>
<defs>
<filter id="filter0_f_12008_13647" x="0.370117" y="-88.9121" width="214.764" height="229.437" filterUnits="userSpaceOnUse" color-interpolation-filters="sRGB">
<feFlood flood-opacity="0" result="BackgroundImageFix"/>
<feBlend mode="normal" in="SourceGraphic" in2="BackgroundImageFix" result="shape"/>
<feGaussianBlur stdDeviation="9" result="effect1_foregroundBlur_12008_13647"/>
</filter>
<filter id="filter1_f_12008_13647" x="6.37012" y="-82.9121" width="202.764" height="217.437" filterUnits="userSpaceOnUse" color-interpolation-filters="sRGB">
<feFlood flood-opacity="0" result="BackgroundImageFix"/>
<feBlend mode="normal" in="SourceGraphic" in2="BackgroundImageFix" result="shape"/>
<feGaussianBlur stdDeviation="6" result="effect1_foregroundBlur_12008_13647"/>
</filter>
</defs>
</svg>
